<svg width="21" height="20" viewBox="0 0 21 20" fill="none" xmlns="http://www.w3.org/2000/svg">
<path d="M11.5281 0C12.6531 0.003 13.2241 0.009 13.7171 0.023L13.9111 0.03C14.1351 0.038 14.3561 0.0479999 14.6231 0.0599999C15.6871 0.11 16.4131 0.278 17.0501 0.525C17.7101 0.779 18.2661 1.123 18.8221 1.678C19.3308 2.17773 19.7243 2.78247 19.9751 3.45C20.2221 4.087 20.3901 4.813 20.4401 5.878C20.4521 6.144 20.4621 6.365 20.4701 6.59L20.4761 6.784C20.4911 7.276 20.4971 7.847 20.4991 8.972L20.5001 9.718V11.028C20.5025 11.7574 20.4948 12.4868 20.4771 13.216L20.4711 13.41C20.4631 13.635 20.4531 13.856 20.4411 14.122C20.3911 15.187 20.2211 15.912 19.9751 16.55C19.7243 17.2175 19.3308 17.8223 18.8221 18.322C18.3223 18.8307 17.7176 19.2242 17.0501 19.475C16.4131 19.722 15.6871 19.89 14.6231 19.94L13.9111 19.97L13.7171 19.976C13.2241 19.99 12.6531 19.997 11.5281 19.999L10.7821 20H9.47308C8.74334 20.0026 8.0136 19.9949 7.28408 19.977L7.09008 19.971C6.85269 19.962 6.61535 19.9517 6.37808 19.94C5.31408 19.89 4.58808 19.722 3.95008 19.475C3.28291 19.2241 2.67852 18.8306 2.17908 18.322C1.67003 17.8224 1.27619 17.2176 1.02508 16.55C0.778081 15.913 0.61008 15.187 0.56008 14.122L0.53008 13.41L0.525081 13.216C0.506647 12.4868 0.498312 11.7574 0.500081 11.028V8.972C0.497313 8.2426 0.504647 7.5132 0.522081 6.784L0.529081 6.59C0.537081 6.365 0.547081 6.144 0.559081 5.878C0.609081 4.813 0.77708 4.088 1.02408 3.45C1.27577 2.7822 1.6703 2.17744 2.18008 1.678C2.67923 1.16955 3.28327 0.776074 3.95008 0.525C4.58808 0.278 5.31308 0.11 6.37808 0.0599999C6.64408 0.0479999 6.86608 0.038 7.09008 0.03L7.28408 0.0239999C8.01327 0.00623271 8.74268 -0.0014347 9.47208 0.000999928L11.5281 0ZM10.5001 5C9.174 5 7.90223 5.52678 6.96455 6.46447C6.02687 7.40215 5.50008 8.67392 5.50008 10C5.50008 11.3261 6.02687 12.5979 6.96455 13.5355C7.90223 14.4732 9.174 15 10.5001 15C11.8262 15 13.0979 14.4732 14.0356 13.5355C14.9733 12.5979 15.5001 11.3261 15.5001 10C15.5001 8.67392 14.9733 7.40215 14.0356 6.46447C13.0979 5.52678 11.8262 5 10.5001 5ZM10.5001 7C10.894 6.99993 11.2842 7.07747 11.6482 7.22817C12.0122 7.37887 12.3429 7.5998 12.6215 7.87833C12.9002 8.15686 13.1212 8.48754 13.272 8.85149C13.4229 9.21544 13.5005 9.60553 13.5006 9.9995C13.5006 10.3935 13.4231 10.7836 13.2724 11.1476C13.1217 11.5116 12.9008 11.8423 12.6223 12.121C12.3437 12.3996 12.013 12.6206 11.6491 12.7714C11.2851 12.9223 10.895 12.9999 10.5011 13C9.70543 13 8.94237 12.6839 8.37976 12.1213C7.81715 11.5587 7.50108 10.7956 7.50108 10C7.50108 9.20435 7.81715 8.44129 8.37976 7.87868C8.94237 7.31607 9.70543 7 10.5011 7M15.7511 3.5C15.4196 3.5 15.1016 3.6317 14.8672 3.86612C14.6328 4.10054 14.5011 4.41848 14.5011 4.75C14.5011 5.08152 14.6328 5.39946 14.8672 5.63388C15.1016 5.8683 15.4196 6 15.7511 6C16.0826 6 16.4005 5.8683 16.635 5.63388C16.8694 5.39946 17.0011 5.08152 17.0011 4.75C17.0011 4.41848 16.8694 4.10054 16.635 3.86612C16.4005 3.6317 16.0826 3.5 15.7511 3.5Z" fill="#121212"/>
</svg>
