<svg width="20" height="18" viewBox="0 0 20 18" fill="none" xmlns="http://www.w3.org/2000/svg">
<path d="M4.43994 2C4.43968 2.53043 4.22871 3.03904 3.85345 3.41392C3.47819 3.78881 2.96937 3.99927 2.43894 3.999C1.90851 3.99874 1.39991 3.78777 1.02502 3.41251C0.650136 3.03725 0.439676 2.52843 0.439942 1.998C0.440207 1.46757 0.651175 0.958965 1.02644 0.58408C1.4017 0.209195 1.91051 -0.00126442 2.44094 -0.0009992C2.97137 -0.000733984 3.47998 0.210234 3.85486 0.585494C4.22975 0.960755 4.44021 1.46957 4.43994 2ZM4.49994 5.48H0.499942V18H4.49994V5.48ZM10.8199 5.48H6.83994V18H10.7799V11.43C10.7799 7.77 15.5499 7.43 15.5499 11.43V18H19.4999V10.07C19.4999 3.9 12.4399 4.13 10.7799 7.16L10.8199 5.48Z" fill="#F5F5F5"/>
</svg>
