<svg width="21" height="18" viewBox="0 0 21 18" fill="none" xmlns="http://www.w3.org/2000/svg">
<path fill-rule="evenodd" clip-rule="evenodd" d="M18.277 0.430003C18.5241 0.325994 18.7946 0.290122 19.0603 0.32612C19.326 0.362119 19.5772 0.468672 19.7877 0.634688C19.9982 0.800705 20.1604 1.02012 20.2574 1.27009C20.3543 1.52005 20.3825 1.79144 20.339 2.056L18.071 15.813C17.851 17.14 16.395 17.901 15.178 17.24C14.16 16.687 12.648 15.835 11.288 14.946C10.608 14.501 8.52502 13.076 8.78102 12.062C9.00102 11.195 12.501 7.937 14.501 6C15.286 5.239 14.928 4.8 14.001 5.5C11.699 7.238 8.00302 9.881 6.78102 10.625C5.70302 11.281 5.14102 11.393 4.46902 11.281C3.24302 11.077 2.10602 10.761 1.17802 10.376C-0.0759802 9.856 -0.0149803 8.132 1.17702 7.63L18.277 0.430003Z" fill="#F5F5F5"/>
</svg>
